<svg xmlns="http://www.w3.org/2000/svg" xmlns:xlink="http://www.w3.org/1999/xlink" viewBox="0 0 135 27">
  <path id="B" d="M18.5 4.7l-.3 1.9c.9-1.4 2.2-2.2 4-2.1l-.6 3.4c-.9-.1-1.7 0-2.5.5s-1.3 1.3-1.6 2.4l-1 5.8h-3l2.1-11.8 2.9-.1h0z"/>
  <path d="M5.5 16.9c-2 0-3.4-.7-4.4-2s-1.3-2.9-1-4.7A6.59 6.59 0 0 1 2.6 6a7.62 7.62 0 0 1 4.7-1.6c1.8 0 3.2.7 4.2 2s1.3 2.8 1 4.6c-.3 1.7-1.1 3.1-2.4 4.2-1.4 1.1-2.9 1.7-4.6 1.7zm.2-3c.9 0 1.7-.3 2.4-.9s1.1-1.4 1.3-2.4 0-1.7-.5-2.3c-.4-.6-1.1-.9-2-.9s-1.7.3-2.4.9-1.1 1.4-1.3 2.4 0 1.8.5 2.4c.4.5 1.1.8 2 .8z"/>
  <use xlink:href="#B"/>
  <path d="M32 6.4L33.1 0h3l-2.9 16.5h-3l.2-1.1c-1 1-2.3 1.5-4 1.5-1.8 0-3.1-.7-4-2s-1.1-2.8-.8-4.6a7.29 7.29 0 0 1 2.3-4.2c1.2-1.1 2.7-1.7 4.4-1.7s2.9.6 3.7 2zM27.4 14c1 0 1.8-.3 2.5-.9s1.2-1.4 1.3-2.4c.2-1 0-1.8-.5-2.4s-1.2-.9-2.2-.9c-.9 0-1.8.3-2.5.9s-1.2 1.4-1.3 2.4c-.2 1 0 1.8.5 2.4a2.99 2.99 0 0 0 2.2.9zm20.9-3.4c0 .3-.1.7-.3 1.3h-8.9c.1.7.3 1.3.9 1.7.5.4 1.2.6 2 .6 1.2 0 2.1-.4 2.9-1.2l2.1 1.7c-1.3 1.5-3.1 2.2-5.3 2.2-2 0-3.5-.6-4.5-1.9s-1.4-2.8-1.1-4.6c.3-1.7 1.1-3.1 2.4-4.3 1.3-1.1 2.9-1.7 4.6-1.7s3.1.6 4.1 1.8c1.1 1.2 1.5 2.7 1.1 4.4zm-8.8-1.1h6c0-.8-.2-1.4-.7-1.8-.4-.4-1-.6-1.8-.6-1.6 0-2.8.8-3.5 2.4z"/>
  <use xlink:href="#B" x="54.1"/>
  <path d="M86 6.3l.3-1.6h3l-2.1 11.8h-3l.2-1.1c-1 .9-2.3 1.4-3.9 1.4-1.8 0-3.1-.7-4-2s-1.1-2.8-.8-4.6c.3-1.5 1.1-2.9 2.3-4.1 1.2-1.1 2.7-1.7 4.4-1.7 1.6 0 2.9.6 3.6 1.9zM81.4 14c.9 0 1.7-.3 2.4-.9s1.2-1.3 1.4-2.3v-.4c.1-.9-.1-1.7-.6-2.3s-1.2-.9-2.1-.9-1.8.3-2.5.9-1.1 1.4-1.3 2.4 0 1.8.5 2.4c.6.7 1.3 1.1 2.2 1.1zm14.2 2.9c-1.8 0-3.3-.6-4.3-1.9s-1.4-2.8-1.1-4.6c.3-1.7 1.1-3.2 2.4-4.3C94 5 95.5 4.4 97.3 4.4c1.2 0 2.2.3 3.1.8s1.5 1.3 1.9 2.2l-2.8 1.5c-.4-1-1.3-1.5-2.5-1.5-.9 0-1.7.3-2.5.9-.7.6-1.1 1.3-1.3 2.3-.2.9 0 1.7.5 2.3s1.2.9 2.1.9c1.2 0 2.2-.5 2.9-1.6l2.5 1.6c-.6 1-1.4 1.7-2.4 2.2-.9.6-2 .9-3.2.9zm15.5-12.2h3.6l-5.7 5.8 3.8 6h-3.3l-3.4-5.5-1 5.5h-3L104.9 0h3l-1.7 9.7 4.9-5zm14.7 5.9c0 .3-.1.7-.3 1.3h-8.9c.1.7.3 1.3.9 1.7.5.4 1.2.6 2 .6 1.2 0 2.1-.4 2.9-1.2l2.1 1.7c-1.3 1.5-3.1 2.2-5.3 2.2-2 0-3.5-.6-4.5-1.9-1-1.2-1.4-2.8-1.1-4.6.3-1.7 1.1-3.1 2.4-4.3 1.3-1.1 2.9-1.7 4.6-1.7s3.1.6 4.1 1.8c1.1 1.2 1.4 2.7 1.1 4.4zm-8.9-1.1h6c0-.8-.2-1.4-.7-1.8-.4-.4-1-.6-1.8-.6-1.6 0-2.8.8-3.5 2.4z"/>
  <use xlink:href="#B" x="113.1"/>
  <path d="M63.8 13.6c-.3-.1-.5-.5-.4-1.1l.2-1.4-3 4.2c.1.2.3.4.5.5.8.6 2.2.9 4.2.6l.5-2.8c-1 .2-1.7.2-2 0zm1-8.9l.6-3.3-3.2.9-.4 2.4h-4.1c-1.8 0-3 .4-3.8 1.9l.3-1.9h-3l-1.9 11 3.3-1.2.7-3.7c.3-1.1.8-1.9 1.6-2.4.6-.4 1.1-.7 2-.8h0 4.3l-.7 4 3.2-1.1.5-3H67l.5-2.9-2.7.1h0zm-19.9 17L62.2 12c-11.4 3.6-22.9 8.5-22.9 8.5l5.6 1.2h0 0z"/>
  <path d="M62.2 12s-.1.1-15 10.7L46 26.8l3.1-3 3.5 2.2c1.1-2 9.6-14 9.6-14h0z"/>
</svg>